<mxfile host="app.diagrams.net" modified="2024-01-15T00:07:12.858Z" agent="Mozilla/5.0 (X11; Linux x86_64; rv:120.0) Gecko/20100101 Firefox/120.0" etag="x4N8LciQqMgKeBGQaHtz" version="22.1.18" type="device">
  <diagram name="Page-1" id="3cXRkSjbhvqF4A_RBFxn">
    <mxGraphModel dx="825" dy="832" grid="1" gridSize="10" guides="1" tooltips="1" connect="1" arrows="1" fold="1" page="1" pageScale="1" pageWidth="850" pageHeight="1100" math="0" shadow="0">
      <root>
        <mxCell id="0" />
        <mxCell id="1" parent="0" />
        <mxCell id="y8dsXiS4RDHLBmo138DW-36" value="" style="swimlane;startSize=0;" vertex="1" parent="1">
          <mxGeometry x="85" y="800" width="680" height="240" as="geometry">
            <mxRectangle x="80" y="800" width="50" height="40" as="alternateBounds" />
          </mxGeometry>
        </mxCell>
        <mxCell id="y8dsXiS4RDHLBmo138DW-37" value="Read Monitor Data" style="ellipse;whiteSpace=wrap;html=1;" vertex="1" parent="y8dsXiS4RDHLBmo138DW-36">
          <mxGeometry x="10" y="10" width="120" height="80" as="geometry" />
        </mxCell>
        <mxCell id="y8dsXiS4RDHLBmo138DW-38" value="Analyze Monitor Data" style="ellipse;whiteSpace=wrap;html=1;" vertex="1" parent="y8dsXiS4RDHLBmo138DW-36">
          <mxGeometry x="200" y="80" width="160" height="80" as="geometry" />
        </mxCell>
        <mxCell id="y8dsXiS4RDHLBmo138DW-41" value="&lt;div&gt;Operating&lt;/div&gt;&lt;div&gt;Duration&lt;/div&gt;" style="ellipse;shape=cloud;whiteSpace=wrap;html=1;" vertex="1" parent="y8dsXiS4RDHLBmo138DW-36">
          <mxGeometry x="300" y="20" width="120" height="80" as="geometry" />
        </mxCell>
        <mxCell id="y8dsXiS4RDHLBmo138DW-40" value="Operating Temperature" style="ellipse;shape=cloud;whiteSpace=wrap;html=1;" vertex="1" parent="y8dsXiS4RDHLBmo138DW-36">
          <mxGeometry x="150" y="20" width="120" height="80" as="geometry" />
        </mxCell>
        <mxCell id="y8dsXiS4RDHLBmo138DW-42" value="Part Dimension Variation" style="ellipse;shape=cloud;whiteSpace=wrap;html=1;" vertex="1" parent="y8dsXiS4RDHLBmo138DW-36">
          <mxGeometry x="150" y="130" width="120" height="80" as="geometry" />
        </mxCell>
        <mxCell id="y8dsXiS4RDHLBmo138DW-43" value="Self-test Status Codes" style="ellipse;shape=cloud;whiteSpace=wrap;html=1;" vertex="1" parent="y8dsXiS4RDHLBmo138DW-36">
          <mxGeometry x="310" y="130" width="120" height="80" as="geometry" />
        </mxCell>
        <mxCell id="y8dsXiS4RDHLBmo138DW-44" value="Generate Alert" style="ellipse;whiteSpace=wrap;html=1;" vertex="1" parent="y8dsXiS4RDHLBmo138DW-36">
          <mxGeometry x="480" y="120" width="120" height="80" as="geometry" />
        </mxCell>
        <mxCell id="y8dsXiS4RDHLBmo138DW-46" value="Machine Alert" style="ellipse;shape=cloud;whiteSpace=wrap;html=1;" vertex="1" parent="y8dsXiS4RDHLBmo138DW-36">
          <mxGeometry x="530" y="60" width="120" height="80" as="geometry" />
        </mxCell>
        <mxCell id="y8dsXiS4RDHLBmo138DW-47" value="Environment Alert" style="ellipse;shape=cloud;whiteSpace=wrap;html=1;" vertex="1" parent="y8dsXiS4RDHLBmo138DW-36">
          <mxGeometry x="540" y="160" width="140" height="80" as="geometry" />
        </mxCell>
        <mxCell id="y8dsXiS4RDHLBmo138DW-63" value="TempExceedEventHandler" style="swimlane;fontStyle=1;align=center;verticalAlign=top;childLayout=stackLayout;horizontal=1;startSize=26;horizontalStack=0;resizeParent=1;resizeParentMax=0;resizeLast=0;collapsible=1;marginBottom=0;whiteSpace=wrap;html=1;" vertex="1" parent="1">
          <mxGeometry x="600" y="1160" width="200" height="60" as="geometry" />
        </mxCell>
        <mxCell id="y8dsXiS4RDHLBmo138DW-65" value="" style="line;strokeWidth=1;fillColor=none;align=left;verticalAlign=middle;spacingTop=-1;spacingLeft=3;spacingRight=3;rotatable=0;labelPosition=right;points=[];portConstraint=eastwest;strokeColor=inherit;" vertex="1" parent="y8dsXiS4RDHLBmo138DW-63">
          <mxGeometry y="26" width="200" height="8" as="geometry" />
        </mxCell>
        <mxCell id="y8dsXiS4RDHLBmo138DW-66" value="+ onEvent(TempExceedEvent): void" style="text;strokeColor=none;fillColor=none;align=left;verticalAlign=top;spacingLeft=4;spacingRight=4;overflow=hidden;rotatable=0;points=[[0,0.5],[1,0.5]];portConstraint=eastwest;whiteSpace=wrap;html=1;" vertex="1" parent="y8dsXiS4RDHLBmo138DW-63">
          <mxGeometry y="34" width="200" height="26" as="geometry" />
        </mxCell>
        <mxCell id="y8dsXiS4RDHLBmo138DW-68" value="" style="group" vertex="1" connectable="0" parent="1">
          <mxGeometry width="840" height="720" as="geometry" />
        </mxCell>
        <mxCell id="y8dsXiS4RDHLBmo138DW-1" value="Monitor Data" style="shape=note;whiteSpace=wrap;html=1;backgroundOutline=1;darkOpacity=0.05;" vertex="1" parent="y8dsXiS4RDHLBmo138DW-68">
          <mxGeometry x="84" y="82.28571428571428" width="84" height="102.85714285714285" as="geometry" />
        </mxCell>
        <mxCell id="y8dsXiS4RDHLBmo138DW-2" value="CNC-machine monitor (Producer)" style="ellipse;shape=cloud;whiteSpace=wrap;html=1;" vertex="1" parent="y8dsXiS4RDHLBmo138DW-68">
          <mxGeometry width="157.5" height="82.28571428571428" as="geometry" />
        </mxCell>
        <mxCell id="y8dsXiS4RDHLBmo138DW-3" value="Monitor Data Reader" style="rounded=0;whiteSpace=wrap;html=1;" vertex="1" parent="y8dsXiS4RDHLBmo138DW-68">
          <mxGeometry x="252" y="102.85714285714285" width="126" height="61.71428571428571" as="geometry" />
        </mxCell>
        <mxCell id="y8dsXiS4RDHLBmo138DW-4" value="Event Broker" style="shape=document;whiteSpace=wrap;html=1;boundedLbl=1;" vertex="1" parent="y8dsXiS4RDHLBmo138DW-68">
          <mxGeometry x="462" y="92.57142857142856" width="126" height="82.28571428571428" as="geometry" />
        </mxCell>
        <mxCell id="y8dsXiS4RDHLBmo138DW-10" value="" style="endArrow=classic;html=1;rounded=0;entryX=0;entryY=0.5;entryDx=0;entryDy=0;" edge="1" parent="y8dsXiS4RDHLBmo138DW-68" source="y8dsXiS4RDHLBmo138DW-1" target="y8dsXiS4RDHLBmo138DW-3">
          <mxGeometry width="50" height="50" relative="1" as="geometry">
            <mxPoint x="210" y="226.28571428571428" as="sourcePoint" />
            <mxPoint x="472.5" y="339.4285714285714" as="targetPoint" />
          </mxGeometry>
        </mxCell>
        <mxCell id="y8dsXiS4RDHLBmo138DW-11" value="" style="endArrow=classic;html=1;rounded=0;entryX=0;entryY=0.5;entryDx=0;entryDy=0;exitX=1;exitY=0.5;exitDx=0;exitDy=0;" edge="1" parent="y8dsXiS4RDHLBmo138DW-68" source="y8dsXiS4RDHLBmo138DW-3" target="y8dsXiS4RDHLBmo138DW-4">
          <mxGeometry width="50" height="50" relative="1" as="geometry">
            <mxPoint x="399" y="205.7142857142857" as="sourcePoint" />
            <mxPoint x="483" y="205.7142857142857" as="targetPoint" />
          </mxGeometry>
        </mxCell>
        <mxCell id="y8dsXiS4RDHLBmo138DW-5" value="Check Operating Temperature" style="shape=callout;whiteSpace=wrap;html=1;perimeter=calloutPerimeter;" vertex="1" parent="y8dsXiS4RDHLBmo138DW-68">
          <mxGeometry x="210" y="288" width="126" height="82.28571428571428" as="geometry" />
        </mxCell>
        <mxCell id="y8dsXiS4RDHLBmo138DW-6" value="Check Part Dimension Variation" style="shape=callout;whiteSpace=wrap;html=1;perimeter=calloutPerimeter;" vertex="1" parent="y8dsXiS4RDHLBmo138DW-68">
          <mxGeometry x="378" y="288" width="126" height="82.28571428571428" as="geometry" />
        </mxCell>
        <mxCell id="y8dsXiS4RDHLBmo138DW-7" value="Check Operating Duration" style="shape=callout;whiteSpace=wrap;html=1;perimeter=calloutPerimeter;" vertex="1" parent="y8dsXiS4RDHLBmo138DW-68">
          <mxGeometry x="546" y="288" width="126" height="82.28571428571428" as="geometry" />
        </mxCell>
        <mxCell id="y8dsXiS4RDHLBmo138DW-8" value="Check Self-test Status Code" style="shape=callout;whiteSpace=wrap;html=1;perimeter=calloutPerimeter;" vertex="1" parent="y8dsXiS4RDHLBmo138DW-68">
          <mxGeometry x="714" y="288" width="126" height="82.28571428571428" as="geometry" />
        </mxCell>
        <mxCell id="y8dsXiS4RDHLBmo138DW-12" value="" style="endArrow=classic;html=1;rounded=0;entryX=0.5;entryY=0;entryDx=0;entryDy=0;entryPerimeter=0;exitX=0.517;exitY=0.838;exitDx=0;exitDy=0;exitPerimeter=0;" edge="1" parent="y8dsXiS4RDHLBmo138DW-68" source="y8dsXiS4RDHLBmo138DW-4" target="y8dsXiS4RDHLBmo138DW-5">
          <mxGeometry width="50" height="50" relative="1" as="geometry">
            <mxPoint x="189" y="154.28571428571428" as="sourcePoint" />
            <mxPoint x="273" y="154.28571428571428" as="targetPoint" />
            <Array as="points">
              <mxPoint x="525" y="246.85714285714283" />
              <mxPoint x="273" y="246.85714285714283" />
            </Array>
          </mxGeometry>
        </mxCell>
        <mxCell id="y8dsXiS4RDHLBmo138DW-15" value="" style="endArrow=classic;html=1;rounded=0;entryX=0.5;entryY=0;entryDx=0;entryDy=0;entryPerimeter=0;" edge="1" parent="y8dsXiS4RDHLBmo138DW-68" target="y8dsXiS4RDHLBmo138DW-6">
          <mxGeometry width="50" height="50" relative="1" as="geometry">
            <mxPoint x="441" y="246.85714285714283" as="sourcePoint" />
            <mxPoint x="472.5" y="339.4285714285714" as="targetPoint" />
          </mxGeometry>
        </mxCell>
        <mxCell id="y8dsXiS4RDHLBmo138DW-16" value="" style="endArrow=classic;html=1;rounded=0;entryX=0.5;entryY=0;entryDx=0;entryDy=0;entryPerimeter=0;" edge="1" parent="y8dsXiS4RDHLBmo138DW-68" target="y8dsXiS4RDHLBmo138DW-7">
          <mxGeometry width="50" height="50" relative="1" as="geometry">
            <mxPoint x="525" y="246.85714285714283" as="sourcePoint" />
            <mxPoint x="472.5" y="339.4285714285714" as="targetPoint" />
            <Array as="points">
              <mxPoint x="609" y="246.85714285714283" />
            </Array>
          </mxGeometry>
        </mxCell>
        <mxCell id="y8dsXiS4RDHLBmo138DW-17" value="" style="endArrow=classic;html=1;rounded=0;entryX=0.5;entryY=0;entryDx=0;entryDy=0;entryPerimeter=0;" edge="1" parent="y8dsXiS4RDHLBmo138DW-68" target="y8dsXiS4RDHLBmo138DW-8">
          <mxGeometry width="50" height="50" relative="1" as="geometry">
            <mxPoint x="609" y="246.85714285714283" as="sourcePoint" />
            <mxPoint x="472.5" y="339.4285714285714" as="targetPoint" />
            <Array as="points">
              <mxPoint x="777" y="246.85714285714283" />
            </Array>
          </mxGeometry>
        </mxCell>
        <mxCell id="y8dsXiS4RDHLBmo138DW-18" value="Max. Temp. Parameter" style="shape=note;whiteSpace=wrap;html=1;backgroundOutline=1;darkOpacity=0.05;" vertex="1" parent="y8dsXiS4RDHLBmo138DW-68">
          <mxGeometry x="168" y="390.85714285714283" width="84" height="102.85714285714285" as="geometry" />
        </mxCell>
        <mxCell id="y8dsXiS4RDHLBmo138DW-19" value="Max. Variation Parameter" style="shape=note;whiteSpace=wrap;html=1;backgroundOutline=1;darkOpacity=0.05;" vertex="1" parent="y8dsXiS4RDHLBmo138DW-68">
          <mxGeometry x="336" y="390.85714285714283" width="84" height="102.85714285714285" as="geometry" />
        </mxCell>
        <mxCell id="y8dsXiS4RDHLBmo138DW-20" value="Max. Duration Parameter" style="shape=note;whiteSpace=wrap;html=1;backgroundOutline=1;darkOpacity=0.05;" vertex="1" parent="y8dsXiS4RDHLBmo138DW-68">
          <mxGeometry x="504" y="390.85714285714283" width="84" height="102.85714285714285" as="geometry" />
        </mxCell>
        <mxCell id="y8dsXiS4RDHLBmo138DW-21" value="Self-test Status Codes" style="shape=note;whiteSpace=wrap;html=1;backgroundOutline=1;darkOpacity=0.05;" vertex="1" parent="y8dsXiS4RDHLBmo138DW-68">
          <mxGeometry x="672" y="390.85714285714283" width="84" height="102.85714285714285" as="geometry" />
        </mxCell>
        <mxCell id="y8dsXiS4RDHLBmo138DW-22" value="" style="endArrow=classic;html=1;rounded=0;exitX=0;exitY=0;exitDx=25;exitDy=0;exitPerimeter=0;entryX=0;entryY=0;entryDx=0;entryDy=25;entryPerimeter=0;" edge="1" parent="y8dsXiS4RDHLBmo138DW-68" source="y8dsXiS4RDHLBmo138DW-18" target="y8dsXiS4RDHLBmo138DW-5">
          <mxGeometry width="50" height="50" relative="1" as="geometry">
            <mxPoint x="420" y="390.85714285714283" as="sourcePoint" />
            <mxPoint x="472.5" y="339.4285714285714" as="targetPoint" />
            <Array as="points">
              <mxPoint x="194.25" y="313.71428571428567" />
            </Array>
          </mxGeometry>
        </mxCell>
        <mxCell id="y8dsXiS4RDHLBmo138DW-23" value="" style="endArrow=classic;html=1;rounded=0;exitX=0;exitY=0;exitDx=25;exitDy=0;exitPerimeter=0;entryX=0;entryY=0;entryDx=0;entryDy=25;entryPerimeter=0;" edge="1" parent="y8dsXiS4RDHLBmo138DW-68">
          <mxGeometry width="50" height="50" relative="1" as="geometry">
            <mxPoint x="362.25" y="390.85714285714283" as="sourcePoint" />
            <mxPoint x="378" y="313.71428571428567" as="targetPoint" />
            <Array as="points">
              <mxPoint x="362.25" y="313.71428571428567" />
            </Array>
          </mxGeometry>
        </mxCell>
        <mxCell id="y8dsXiS4RDHLBmo138DW-24" value="" style="endArrow=classic;html=1;rounded=0;exitX=0;exitY=0;exitDx=25;exitDy=0;exitPerimeter=0;entryX=0;entryY=0;entryDx=0;entryDy=25;entryPerimeter=0;" edge="1" parent="y8dsXiS4RDHLBmo138DW-68">
          <mxGeometry width="50" height="50" relative="1" as="geometry">
            <mxPoint x="530.25" y="390.85714285714283" as="sourcePoint" />
            <mxPoint x="546" y="313.71428571428567" as="targetPoint" />
            <Array as="points">
              <mxPoint x="530.25" y="313.71428571428567" />
            </Array>
          </mxGeometry>
        </mxCell>
        <mxCell id="y8dsXiS4RDHLBmo138DW-25" value="" style="endArrow=classic;html=1;rounded=0;exitX=0;exitY=0;exitDx=25;exitDy=0;exitPerimeter=0;entryX=0;entryY=0;entryDx=0;entryDy=25;entryPerimeter=0;" edge="1" parent="y8dsXiS4RDHLBmo138DW-68">
          <mxGeometry width="50" height="50" relative="1" as="geometry">
            <mxPoint x="698.25" y="390.85714285714283" as="sourcePoint" />
            <mxPoint x="714" y="313.71428571428567" as="targetPoint" />
            <Array as="points">
              <mxPoint x="698.25" y="313.71428571428567" />
            </Array>
          </mxGeometry>
        </mxCell>
        <mxCell id="y8dsXiS4RDHLBmo138DW-27" value="Generate Alert" style="shape=note;strokeWidth=2;fontSize=14;size=20;whiteSpace=wrap;html=1;fillColor=#fff2cc;strokeColor=#d6b656;fontColor=#666600;" vertex="1" parent="y8dsXiS4RDHLBmo138DW-68">
          <mxGeometry x="210" y="576" width="630" height="82.28571428571428" as="geometry" />
        </mxCell>
        <mxCell id="y8dsXiS4RDHLBmo138DW-28" value="" style="endArrow=classic;html=1;rounded=0;exitX=0;exitY=0;exitDx=60;exitDy=80;exitPerimeter=0;entryX=0.1;entryY=-0.037;entryDx=0;entryDy=0;entryPerimeter=0;" edge="1" parent="y8dsXiS4RDHLBmo138DW-68" source="y8dsXiS4RDHLBmo138DW-5" target="y8dsXiS4RDHLBmo138DW-27">
          <mxGeometry width="50" height="50" relative="1" as="geometry">
            <mxPoint x="420" y="452.57142857142856" as="sourcePoint" />
            <mxPoint x="472.5" y="401.1428571428571" as="targetPoint" />
          </mxGeometry>
        </mxCell>
        <mxCell id="y8dsXiS4RDHLBmo138DW-29" value="" style="endArrow=classic;html=1;rounded=0;exitX=0;exitY=0;exitDx=60;exitDy=80;exitPerimeter=0;entryX=0.1;entryY=-0.037;entryDx=0;entryDy=0;entryPerimeter=0;" edge="1" parent="y8dsXiS4RDHLBmo138DW-68">
          <mxGeometry width="50" height="50" relative="1" as="geometry">
            <mxPoint x="440.475" y="370.2857142857142" as="sourcePoint" />
            <mxPoint x="440.475" y="572.9142857142857" as="targetPoint" />
          </mxGeometry>
        </mxCell>
        <mxCell id="y8dsXiS4RDHLBmo138DW-30" value="" style="endArrow=classic;html=1;rounded=0;exitX=0;exitY=0;exitDx=60;exitDy=80;exitPerimeter=0;entryX=0.1;entryY=-0.037;entryDx=0;entryDy=0;entryPerimeter=0;" edge="1" parent="y8dsXiS4RDHLBmo138DW-68">
          <mxGeometry width="50" height="50" relative="1" as="geometry">
            <mxPoint x="608.475" y="373.3714285714285" as="sourcePoint" />
            <mxPoint x="608.475" y="576" as="targetPoint" />
          </mxGeometry>
        </mxCell>
        <mxCell id="y8dsXiS4RDHLBmo138DW-31" value="" style="endArrow=classic;html=1;rounded=0;exitX=0;exitY=0;exitDx=60;exitDy=80;exitPerimeter=0;entryX=0.1;entryY=-0.037;entryDx=0;entryDy=0;entryPerimeter=0;" edge="1" parent="y8dsXiS4RDHLBmo138DW-68">
          <mxGeometry width="50" height="50" relative="1" as="geometry">
            <mxPoint x="776.475" y="373.3714285714285" as="sourcePoint" />
            <mxPoint x="776.475" y="576" as="targetPoint" />
          </mxGeometry>
        </mxCell>
        <mxCell id="y8dsXiS4RDHLBmo138DW-32" value="Machine Alert" style="ellipse;shape=cloud;whiteSpace=wrap;html=1;" vertex="1" parent="y8dsXiS4RDHLBmo138DW-68">
          <mxGeometry x="346.5" y="637.7142857142857" width="126" height="82.28571428571428" as="geometry" />
        </mxCell>
        <mxCell id="y8dsXiS4RDHLBmo138DW-33" value="Environment Alert" style="ellipse;shape=cloud;whiteSpace=wrap;html=1;" vertex="1" parent="y8dsXiS4RDHLBmo138DW-68">
          <mxGeometry x="546" y="637.7142857142857" width="147" height="82.28571428571428" as="geometry" />
        </mxCell>
        <mxCell id="y8dsXiS4RDHLBmo138DW-57" value="Event Handlers (Consumers)" style="ellipse;shape=cloud;whiteSpace=wrap;html=1;" vertex="1" parent="y8dsXiS4RDHLBmo138DW-68">
          <mxGeometry x="42" y="277.71428571428567" width="126" height="82.28571428571428" as="geometry" />
        </mxCell>
        <mxCell id="y8dsXiS4RDHLBmo138DW-69" value="VariationExceedEventHandler" style="swimlane;fontStyle=1;align=center;verticalAlign=top;childLayout=stackLayout;horizontal=1;startSize=26;horizontalStack=0;resizeParent=1;resizeParentMax=0;resizeLast=0;collapsible=1;marginBottom=0;whiteSpace=wrap;html=1;" vertex="1" parent="1">
          <mxGeometry x="590" y="1240" width="220" height="60" as="geometry" />
        </mxCell>
        <mxCell id="y8dsXiS4RDHLBmo138DW-70" value="" style="line;strokeWidth=1;fillColor=none;align=left;verticalAlign=middle;spacingTop=-1;spacingLeft=3;spacingRight=3;rotatable=0;labelPosition=right;points=[];portConstraint=eastwest;strokeColor=inherit;" vertex="1" parent="y8dsXiS4RDHLBmo138DW-69">
          <mxGeometry y="26" width="220" height="8" as="geometry" />
        </mxCell>
        <mxCell id="y8dsXiS4RDHLBmo138DW-71" value="+ onEvent(VariationExceedEvent): void" style="text;strokeColor=none;fillColor=none;align=left;verticalAlign=top;spacingLeft=4;spacingRight=4;overflow=hidden;rotatable=0;points=[[0,0.5],[1,0.5]];portConstraint=eastwest;whiteSpace=wrap;html=1;" vertex="1" parent="y8dsXiS4RDHLBmo138DW-69">
          <mxGeometry y="34" width="220" height="26" as="geometry" />
        </mxCell>
        <mxCell id="y8dsXiS4RDHLBmo138DW-72" value="DurationExceedEventHandler" style="swimlane;fontStyle=1;align=center;verticalAlign=top;childLayout=stackLayout;horizontal=1;startSize=26;horizontalStack=0;resizeParent=1;resizeParentMax=0;resizeLast=0;collapsible=1;marginBottom=0;whiteSpace=wrap;html=1;" vertex="1" parent="1">
          <mxGeometry x="590" y="1320" width="220" height="60" as="geometry" />
        </mxCell>
        <mxCell id="y8dsXiS4RDHLBmo138DW-73" value="" style="line;strokeWidth=1;fillColor=none;align=left;verticalAlign=middle;spacingTop=-1;spacingLeft=3;spacingRight=3;rotatable=0;labelPosition=right;points=[];portConstraint=eastwest;strokeColor=inherit;" vertex="1" parent="y8dsXiS4RDHLBmo138DW-72">
          <mxGeometry y="26" width="220" height="8" as="geometry" />
        </mxCell>
        <mxCell id="y8dsXiS4RDHLBmo138DW-74" value="+ onEvent(DurationExceedEvent): void" style="text;strokeColor=none;fillColor=none;align=left;verticalAlign=top;spacingLeft=4;spacingRight=4;overflow=hidden;rotatable=0;points=[[0,0.5],[1,0.5]];portConstraint=eastwest;whiteSpace=wrap;html=1;" vertex="1" parent="y8dsXiS4RDHLBmo138DW-72">
          <mxGeometry y="34" width="220" height="26" as="geometry" />
        </mxCell>
        <mxCell id="y8dsXiS4RDHLBmo138DW-75" value="SelfTestEventHandler" style="swimlane;fontStyle=1;align=center;verticalAlign=top;childLayout=stackLayout;horizontal=1;startSize=26;horizontalStack=0;resizeParent=1;resizeParentMax=0;resizeLast=0;collapsible=1;marginBottom=0;whiteSpace=wrap;html=1;" vertex="1" parent="1">
          <mxGeometry x="590" y="1400" width="220" height="60" as="geometry" />
        </mxCell>
        <mxCell id="y8dsXiS4RDHLBmo138DW-76" value="" style="line;strokeWidth=1;fillColor=none;align=left;verticalAlign=middle;spacingTop=-1;spacingLeft=3;spacingRight=3;rotatable=0;labelPosition=right;points=[];portConstraint=eastwest;strokeColor=inherit;" vertex="1" parent="y8dsXiS4RDHLBmo138DW-75">
          <mxGeometry y="26" width="220" height="8" as="geometry" />
        </mxCell>
        <mxCell id="y8dsXiS4RDHLBmo138DW-77" value="+ onEvent(SelfTestEvent): void" style="text;strokeColor=none;fillColor=none;align=left;verticalAlign=top;spacingLeft=4;spacingRight=4;overflow=hidden;rotatable=0;points=[[0,0.5],[1,0.5]];portConstraint=eastwest;whiteSpace=wrap;html=1;" vertex="1" parent="y8dsXiS4RDHLBmo138DW-75">
          <mxGeometry y="34" width="220" height="26" as="geometry" />
        </mxCell>
        <mxCell id="y8dsXiS4RDHLBmo138DW-78" value="«interface»&lt;br&gt;&lt;div&gt;&lt;b&gt;EventHandler&lt;/b&gt;&lt;/div&gt;&lt;div&gt;onEvent(Event): void&lt;br&gt;&lt;/div&gt;" style="html=1;whiteSpace=wrap;" vertex="1" parent="1">
          <mxGeometry x="320" y="1290" width="120" height="60" as="geometry" />
        </mxCell>
        <mxCell id="y8dsXiS4RDHLBmo138DW-79" value="" style="endArrow=block;dashed=1;endFill=0;endSize=12;html=1;rounded=0;exitX=0;exitY=0.5;exitDx=0;exitDy=0;entryX=1;entryY=0;entryDx=0;entryDy=0;" edge="1" parent="1" source="y8dsXiS4RDHLBmo138DW-63" target="y8dsXiS4RDHLBmo138DW-78">
          <mxGeometry width="160" relative="1" as="geometry">
            <mxPoint x="340" y="1250" as="sourcePoint" />
            <mxPoint x="500" y="1250" as="targetPoint" />
          </mxGeometry>
        </mxCell>
        <mxCell id="y8dsXiS4RDHLBmo138DW-80" value="" style="endArrow=block;dashed=1;endFill=0;endSize=12;html=1;rounded=0;exitX=0;exitY=0.5;exitDx=0;exitDy=0;entryX=1;entryY=0.25;entryDx=0;entryDy=0;" edge="1" parent="1" source="y8dsXiS4RDHLBmo138DW-69" target="y8dsXiS4RDHLBmo138DW-78">
          <mxGeometry width="160" relative="1" as="geometry">
            <mxPoint x="610" y="1200" as="sourcePoint" />
            <mxPoint x="450" y="1330" as="targetPoint" />
          </mxGeometry>
        </mxCell>
        <mxCell id="y8dsXiS4RDHLBmo138DW-81" value="" style="endArrow=block;dashed=1;endFill=0;endSize=12;html=1;rounded=0;exitX=0;exitY=0.5;exitDx=0;exitDy=0;entryX=1;entryY=0.75;entryDx=0;entryDy=0;" edge="1" parent="1" source="y8dsXiS4RDHLBmo138DW-72" target="y8dsXiS4RDHLBmo138DW-78">
          <mxGeometry width="160" relative="1" as="geometry">
            <mxPoint x="600" y="1280" as="sourcePoint" />
            <mxPoint x="450" y="1315" as="targetPoint" />
          </mxGeometry>
        </mxCell>
        <mxCell id="y8dsXiS4RDHLBmo138DW-82" value="" style="endArrow=block;dashed=1;endFill=0;endSize=12;html=1;rounded=0;entryX=1;entryY=1;entryDx=0;entryDy=0;exitX=0;exitY=0.5;exitDx=0;exitDy=0;" edge="1" parent="1" source="y8dsXiS4RDHLBmo138DW-75" target="y8dsXiS4RDHLBmo138DW-78">
          <mxGeometry width="160" relative="1" as="geometry">
            <mxPoint x="560" y="1420" as="sourcePoint" />
            <mxPoint x="460" y="1325" as="targetPoint" />
          </mxGeometry>
        </mxCell>
        <mxCell id="y8dsXiS4RDHLBmo138DW-83" value="&lt;i&gt;Event&lt;/i&gt;" style="swimlane;fontStyle=1;align=center;verticalAlign=top;childLayout=stackLayout;horizontal=1;startSize=26;horizontalStack=0;resizeParent=1;resizeParentMax=0;resizeLast=0;collapsible=1;marginBottom=0;whiteSpace=wrap;html=1;" vertex="1" parent="1">
          <mxGeometry x="310" y="1470" width="160" height="86" as="geometry" />
        </mxCell>
        <mxCell id="y8dsXiS4RDHLBmo138DW-84" value="+ field: type" style="text;strokeColor=none;fillColor=none;align=left;verticalAlign=top;spacingLeft=4;spacingRight=4;overflow=hidden;rotatable=0;points=[[0,0.5],[1,0.5]];portConstraint=eastwest;whiteSpace=wrap;html=1;" vertex="1" parent="y8dsXiS4RDHLBmo138DW-83">
          <mxGeometry y="26" width="160" height="26" as="geometry" />
        </mxCell>
        <mxCell id="y8dsXiS4RDHLBmo138DW-85" value="" style="line;strokeWidth=1;fillColor=none;align=left;verticalAlign=middle;spacingTop=-1;spacingLeft=3;spacingRight=3;rotatable=0;labelPosition=right;points=[];portConstraint=eastwest;strokeColor=inherit;" vertex="1" parent="y8dsXiS4RDHLBmo138DW-83">
          <mxGeometry y="52" width="160" height="8" as="geometry" />
        </mxCell>
        <mxCell id="y8dsXiS4RDHLBmo138DW-86" value="+ method(type): type" style="text;strokeColor=none;fillColor=none;align=left;verticalAlign=top;spacingLeft=4;spacingRight=4;overflow=hidden;rotatable=0;points=[[0,0.5],[1,0.5]];portConstraint=eastwest;whiteSpace=wrap;html=1;" vertex="1" parent="y8dsXiS4RDHLBmo138DW-83">
          <mxGeometry y="60" width="160" height="26" as="geometry" />
        </mxCell>
        <mxCell id="y8dsXiS4RDHLBmo138DW-87" value="TempExceedEvent" style="swimlane;fontStyle=1;align=center;verticalAlign=top;childLayout=stackLayout;horizontal=1;startSize=26;horizontalStack=0;resizeParent=1;resizeParentMax=0;resizeLast=0;collapsible=1;marginBottom=0;whiteSpace=wrap;html=1;" vertex="1" parent="1">
          <mxGeometry x="40" y="1640" width="160" height="86" as="geometry" />
        </mxCell>
        <mxCell id="y8dsXiS4RDHLBmo138DW-88" value="+ field: type" style="text;strokeColor=none;fillColor=none;align=left;verticalAlign=top;spacingLeft=4;spacingRight=4;overflow=hidden;rotatable=0;points=[[0,0.5],[1,0.5]];portConstraint=eastwest;whiteSpace=wrap;html=1;" vertex="1" parent="y8dsXiS4RDHLBmo138DW-87">
          <mxGeometry y="26" width="160" height="26" as="geometry" />
        </mxCell>
        <mxCell id="y8dsXiS4RDHLBmo138DW-89" value="" style="line;strokeWidth=1;fillColor=none;align=left;verticalAlign=middle;spacingTop=-1;spacingLeft=3;spacingRight=3;rotatable=0;labelPosition=right;points=[];portConstraint=eastwest;strokeColor=inherit;" vertex="1" parent="y8dsXiS4RDHLBmo138DW-87">
          <mxGeometry y="52" width="160" height="8" as="geometry" />
        </mxCell>
        <mxCell id="y8dsXiS4RDHLBmo138DW-90" value="+ method(type): type" style="text;strokeColor=none;fillColor=none;align=left;verticalAlign=top;spacingLeft=4;spacingRight=4;overflow=hidden;rotatable=0;points=[[0,0.5],[1,0.5]];portConstraint=eastwest;whiteSpace=wrap;html=1;" vertex="1" parent="y8dsXiS4RDHLBmo138DW-87">
          <mxGeometry y="60" width="160" height="26" as="geometry" />
        </mxCell>
        <mxCell id="y8dsXiS4RDHLBmo138DW-91" value="VariationExceedEvent" style="swimlane;fontStyle=1;align=center;verticalAlign=top;childLayout=stackLayout;horizontal=1;startSize=26;horizontalStack=0;resizeParent=1;resizeParentMax=0;resizeLast=0;collapsible=1;marginBottom=0;whiteSpace=wrap;html=1;" vertex="1" parent="1">
          <mxGeometry x="220" y="1640" width="160" height="86" as="geometry" />
        </mxCell>
        <mxCell id="y8dsXiS4RDHLBmo138DW-92" value="+ field: type" style="text;strokeColor=none;fillColor=none;align=left;verticalAlign=top;spacingLeft=4;spacingRight=4;overflow=hidden;rotatable=0;points=[[0,0.5],[1,0.5]];portConstraint=eastwest;whiteSpace=wrap;html=1;" vertex="1" parent="y8dsXiS4RDHLBmo138DW-91">
          <mxGeometry y="26" width="160" height="26" as="geometry" />
        </mxCell>
        <mxCell id="y8dsXiS4RDHLBmo138DW-93" value="" style="line;strokeWidth=1;fillColor=none;align=left;verticalAlign=middle;spacingTop=-1;spacingLeft=3;spacingRight=3;rotatable=0;labelPosition=right;points=[];portConstraint=eastwest;strokeColor=inherit;" vertex="1" parent="y8dsXiS4RDHLBmo138DW-91">
          <mxGeometry y="52" width="160" height="8" as="geometry" />
        </mxCell>
        <mxCell id="y8dsXiS4RDHLBmo138DW-94" value="+ method(type): type" style="text;strokeColor=none;fillColor=none;align=left;verticalAlign=top;spacingLeft=4;spacingRight=4;overflow=hidden;rotatable=0;points=[[0,0.5],[1,0.5]];portConstraint=eastwest;whiteSpace=wrap;html=1;" vertex="1" parent="y8dsXiS4RDHLBmo138DW-91">
          <mxGeometry y="60" width="160" height="26" as="geometry" />
        </mxCell>
        <mxCell id="y8dsXiS4RDHLBmo138DW-95" value="DurationExceedEvent" style="swimlane;fontStyle=1;align=center;verticalAlign=top;childLayout=stackLayout;horizontal=1;startSize=26;horizontalStack=0;resizeParent=1;resizeParentMax=0;resizeLast=0;collapsible=1;marginBottom=0;whiteSpace=wrap;html=1;" vertex="1" parent="1">
          <mxGeometry x="400" y="1640" width="160" height="86" as="geometry" />
        </mxCell>
        <mxCell id="y8dsXiS4RDHLBmo138DW-96" value="+ field: type" style="text;strokeColor=none;fillColor=none;align=left;verticalAlign=top;spacingLeft=4;spacingRight=4;overflow=hidden;rotatable=0;points=[[0,0.5],[1,0.5]];portConstraint=eastwest;whiteSpace=wrap;html=1;" vertex="1" parent="y8dsXiS4RDHLBmo138DW-95">
          <mxGeometry y="26" width="160" height="26" as="geometry" />
        </mxCell>
        <mxCell id="y8dsXiS4RDHLBmo138DW-97" value="" style="line;strokeWidth=1;fillColor=none;align=left;verticalAlign=middle;spacingTop=-1;spacingLeft=3;spacingRight=3;rotatable=0;labelPosition=right;points=[];portConstraint=eastwest;strokeColor=inherit;" vertex="1" parent="y8dsXiS4RDHLBmo138DW-95">
          <mxGeometry y="52" width="160" height="8" as="geometry" />
        </mxCell>
        <mxCell id="y8dsXiS4RDHLBmo138DW-98" value="+ method(type): type" style="text;strokeColor=none;fillColor=none;align=left;verticalAlign=top;spacingLeft=4;spacingRight=4;overflow=hidden;rotatable=0;points=[[0,0.5],[1,0.5]];portConstraint=eastwest;whiteSpace=wrap;html=1;" vertex="1" parent="y8dsXiS4RDHLBmo138DW-95">
          <mxGeometry y="60" width="160" height="26" as="geometry" />
        </mxCell>
        <mxCell id="y8dsXiS4RDHLBmo138DW-99" value="SelfTestEvent" style="swimlane;fontStyle=1;align=center;verticalAlign=top;childLayout=stackLayout;horizontal=1;startSize=26;horizontalStack=0;resizeParent=1;resizeParentMax=0;resizeLast=0;collapsible=1;marginBottom=0;whiteSpace=wrap;html=1;" vertex="1" parent="1">
          <mxGeometry x="580" y="1640" width="160" height="86" as="geometry" />
        </mxCell>
        <mxCell id="y8dsXiS4RDHLBmo138DW-100" value="+ field: type" style="text;strokeColor=none;fillColor=none;align=left;verticalAlign=top;spacingLeft=4;spacingRight=4;overflow=hidden;rotatable=0;points=[[0,0.5],[1,0.5]];portConstraint=eastwest;whiteSpace=wrap;html=1;" vertex="1" parent="y8dsXiS4RDHLBmo138DW-99">
          <mxGeometry y="26" width="160" height="26" as="geometry" />
        </mxCell>
        <mxCell id="y8dsXiS4RDHLBmo138DW-101" value="" style="line;strokeWidth=1;fillColor=none;align=left;verticalAlign=middle;spacingTop=-1;spacingLeft=3;spacingRight=3;rotatable=0;labelPosition=right;points=[];portConstraint=eastwest;strokeColor=inherit;" vertex="1" parent="y8dsXiS4RDHLBmo138DW-99">
          <mxGeometry y="52" width="160" height="8" as="geometry" />
        </mxCell>
        <mxCell id="y8dsXiS4RDHLBmo138DW-102" value="+ method(type): type" style="text;strokeColor=none;fillColor=none;align=left;verticalAlign=top;spacingLeft=4;spacingRight=4;overflow=hidden;rotatable=0;points=[[0,0.5],[1,0.5]];portConstraint=eastwest;whiteSpace=wrap;html=1;" vertex="1" parent="y8dsXiS4RDHLBmo138DW-99">
          <mxGeometry y="60" width="160" height="26" as="geometry" />
        </mxCell>
        <mxCell id="y8dsXiS4RDHLBmo138DW-103" value="" style="endArrow=block;endSize=16;endFill=0;html=1;rounded=0;exitX=0.5;exitY=0;exitDx=0;exitDy=0;entryX=0.498;entryY=0.976;entryDx=0;entryDy=0;entryPerimeter=0;" edge="1" parent="1" source="y8dsXiS4RDHLBmo138DW-87" target="y8dsXiS4RDHLBmo138DW-86">
          <mxGeometry width="160" relative="1" as="geometry">
            <mxPoint x="330" y="1620" as="sourcePoint" />
            <mxPoint x="490" y="1620" as="targetPoint" />
            <Array as="points">
              <mxPoint x="120" y="1600" />
              <mxPoint x="390" y="1600" />
            </Array>
          </mxGeometry>
        </mxCell>
        <mxCell id="y8dsXiS4RDHLBmo138DW-109" value="" style="endArrow=none;html=1;rounded=0;exitX=0.5;exitY=0;exitDx=0;exitDy=0;" edge="1" parent="1" source="y8dsXiS4RDHLBmo138DW-91">
          <mxGeometry width="50" height="50" relative="1" as="geometry">
            <mxPoint x="390" y="1640" as="sourcePoint" />
            <mxPoint x="300" y="1600" as="targetPoint" />
          </mxGeometry>
        </mxCell>
        <mxCell id="y8dsXiS4RDHLBmo138DW-110" value="" style="endArrow=none;html=1;rounded=0;exitX=0.5;exitY=0;exitDx=0;exitDy=0;" edge="1" parent="1" source="y8dsXiS4RDHLBmo138DW-99">
          <mxGeometry width="50" height="50" relative="1" as="geometry">
            <mxPoint x="670" y="1600" as="sourcePoint" />
            <mxPoint x="390" y="1600" as="targetPoint" />
            <Array as="points">
              <mxPoint x="660" y="1600" />
            </Array>
          </mxGeometry>
        </mxCell>
        <mxCell id="y8dsXiS4RDHLBmo138DW-111" value="" style="endArrow=none;html=1;rounded=0;exitX=0.5;exitY=0;exitDx=0;exitDy=0;" edge="1" parent="1">
          <mxGeometry width="50" height="50" relative="1" as="geometry">
            <mxPoint x="479.47" y="1640" as="sourcePoint" />
            <mxPoint x="479.47" y="1600" as="targetPoint" />
          </mxGeometry>
        </mxCell>
      </root>
    </mxGraphModel>
  </diagram>
</mxfile>
